<svg width="1400" height="400" viewBox="0 0 1400 400" fill="none" xmlns="http://www.w3.org/2000/svg">
  <!-- Flower symbol -->
  <g transform="translate(80, 50)">
    <!-- Center circle -->
    <circle cx="150" cy="150" r="35" fill="#1a1a1a"/>
    
    <!-- Petals -->
    <ellipse cx="150" cy="85" rx="25" ry="45" fill="#1a1a1a"/>
    <ellipse cx="215" cy="150" rx="45" ry="25" fill="#1a1a1a"/>
    <ellipse cx="150" cy="215" rx="25" ry="45" fill="#1a1a1a"/>
    <ellipse cx="85" cy="150" rx="45" ry="25" fill="#1a1a1a"/>
    
    <!-- Diagonal petals -->
    <ellipse cx="191" cy="109" rx="32" ry="20" fill="#1a1a1a" transform="rotate(45 191 109)"/>
    <ellipse cx="191" cy="191" rx="32" ry="20" fill="#1a1a1a" transform="rotate(-45 191 191)"/>
    <ellipse cx="109" cy="191" rx="32" ry="20" fill="#1a1a1a" transform="rotate(45 109 191)"/>
    <ellipse cx="109" cy="109" rx="32" ry="20" fill="#1a1a1a" transform="rotate(-45 109 109)"/>
  </g>
  
  <!-- Text "keeps" -->
  <g transform="translate(380, 50)">
    <!-- k -->
    <path d="M0 0 L0 300 L40 300 L40 150 L120 300 L170 300 L90 150 L160 0 L110 0 L40 140 L40 0 Z" fill="#1a1a1a"/>
    
    <!-- e -->
    <path d="M200 75 L200 225 Q200 275 250 275 L320 275 Q370 275 370 225 L370 200 L240 200 L240 160 L370 160 L370 135 Q370 85 320 85 L250 85 Q200 85 200 135 L200 225 Z M240 125 L330 125 L330 155 L240 155 L240 125 Z M240 235 L330 235 L330 200 L370 200 L370 225 Q370 235 360 235 L250 235 Q240 235 240 225 Z" fill="#1a1a1a"/>
    
    <!-- e -->
    <path d="M410 75 L410 225 Q410 275 460 275 L530 275 Q580 275 580 225 L580 200 L450 200 L450 160 L580 160 L580 135 Q580 85 530 85 L460 85 Q410 85 410 135 L410 225 Z M450 125 L540 125 L540 155 L450 155 L450 125 Z M450 235 L540 235 L540 200 L580 200 L580 225 Q580 235 570 235 L460 235 Q450 235 450 225 Z" fill="#1a1a1a"/>
    
    <!-- p -->
    <path d="M620 75 L620 375 L660 375 L660 275 L730 275 Q780 275 780 225 L780 125 Q780 75 730 75 L620 75 Z M660 115 L730 115 Q740 115 740 125 L740 225 Q740 235 730 235 L660 235 L660 115 Z" fill="#1a1a1a"/>
    
    <!-- s -->
    <path d="M820 75 Q770 75 770 125 L770 135 L810 135 L810 125 Q810 115 820 115 L890 115 Q900 115 900 125 L900 135 Q900 145 890 145 L820 145 Q770 145 770 195 L770 225 Q770 275 820 275 L890 275 Q940 275 940 225 L940 215 L900 215 L900 225 Q900 235 890 235 L820 235 Q810 235 810 225 L810 215 Q810 205 820 205 L890 205 Q940 205 940 155 L940 125 Q940 75 890 75 L820 75 Z" fill="#1a1a1a"/>
  </g>
</svg>